<svg xmlns="http://www.w3.org/2000/svg" height="1em" class="fill-pink-700 hover:fill-pink-800 block h-9 w-auto" viewBox="0 0 384 512"><path d="M53.9 186.1C19.4 220.6 0 267.4 0 316.2v11.5C0 429.5 82.5 512 184.3 512h15.1c102 0 184.6-82.6 184.6-184.6 0-66.1-27.1-129.2-74.9-174.8l-78.2-74.4c-9.5-9.1-14.9-21.6-14.9-34.8V21.3C216 9.6 206.4 0 194.7 0c-6.7 0-13 3.2-17.1 8.5L168 21.3l-9.9 13.2c-14.4 19.3-23.2 42.2-25.2 66.2l-.9 10.8c-.3 3.9-.5 7.8-.4 11.7.2 22.9 6.6 45.4 18.4 65 2.2 3.7 4.6 7.2 7.2 10.6l10.8 14.5 21.2 28.3c7 9.3 10.8 20.7 10.8 32.4v14c0 22.1-17.9 40-40 40s-40-17.9-40-40v-99.7c0-15.6-12.7-28.3-28.3-28.3-1.3 0-2.6.1-3.9.3-6 .8-11.7 3.6-16.1 8l-17.8 17.8zm18.1 53V288c0 48.6 39.4 88 88 88s88-39.4 88-88v-14c0-22.1-7.2-43.5-20.4-61.2l-32-42.7c-11.8-15.7-17.4-35.1-15.7-54.6l.9-10.8c.3-3.6.8-7.2 1.6-10.7 4.3 6.9 9.4 13.3 15.4 18.9l33.1-34.8-33.1 34.8 78.2 74.5c38.3 36.5 60 87.1 60 140 0 75.5-61.1 136.6-136.6 136.6h-15.1C109 464 48 403 48 327.7v-11.5c0-27.7 8.5-54.6 24-77.2z"/></svg>